<svg width="413" height="413" viewBox="0 0 413 413" fill="none" xmlns="http://www.w3.org/2000/svg">
<circle cx="206.5" cy="206.5" r="206.5" fill="#151515"/>
<g clip-path="url(#clip0_702_314)">
<mask id="mask0_702_314" style="mask-type:alpha" maskUnits="userSpaceOnUse" x="113" y="48" width="182" height="183">
<path d="M294.956 48.0232H113.242V230.896H294.956V48.0232Z" fill="#D9D9D9"/>
</mask>
<g mask="url(#mask0_702_314)">
<path d="M154.127 120.41C159.049 120.41 163.718 121.299 168.134 123.077C172.551 124.855 176.589 127.458 180.249 130.887L252.556 200.417H257.099C259.244 200.417 261.042 199.686 262.493 198.226C263.945 196.766 264.67 194.956 264.67 192.797C264.67 191.781 264.575 190.702 264.386 189.559C264.197 188.416 263.534 187.273 262.398 186.13L227.76 151.27L214.32 110.504L200.313 113.933C195.518 115.203 191.165 114.314 187.252 111.266C183.341 108.218 181.385 104.218 181.385 99.2654V83.264L176.084 80.5972L146.935 119.839C146.809 119.966 146.746 120.061 146.746 120.124C146.746 120.188 146.682 120.283 146.556 120.41H154.127ZM154.127 135.649H145.42C145.799 136.538 146.272 137.364 146.84 138.126C147.408 138.888 148.071 139.586 148.827 140.221L210.156 196.417C211.544 197.814 213.121 198.83 214.888 199.464C216.655 200.099 218.485 200.417 220.377 200.417H230.599L169.838 141.936C167.693 139.777 165.264 138.19 162.55 137.174C159.838 136.158 157.03 135.649 154.127 135.649ZM220.377 215.656C216.592 215.656 212.995 214.958 209.588 213.561C206.181 212.164 203.026 210.196 200.124 207.655L138.606 151.46C132.801 146.127 129.552 139.586 128.858 131.84C128.164 124.093 130.151 117.045 134.82 110.695L163.971 71.4535C166.116 68.5326 168.986 66.596 172.583 65.6435C176.179 64.6911 179.618 65.1038 182.899 66.8817L188.199 69.5486C190.849 70.9455 192.899 72.8505 194.35 75.2634C195.802 77.6763 196.527 80.3432 196.527 83.264V99.2654L210.535 95.646C214.32 94.6301 217.98 95.1063 221.513 97.0747C225.046 99.0431 227.444 101.869 228.706 105.552L241.01 142.888L273.188 175.272C275.712 177.812 277.447 180.542 278.393 183.463C279.34 186.384 279.813 189.495 279.813 192.797C279.813 199.147 277.605 204.544 273.188 208.989C268.771 213.434 263.408 215.656 257.099 215.656H220.377Z" fill="white"/>
</g>
<path d="M81.9941 255.874L78.3384 263.103C78.0819 263.662 77.8254 264.243 77.5688 264.845C77.355 265.405 77.1199 265.964 76.8634 266.524C76.4785 267.556 76.0937 268.503 75.7089 269.363C75.3241 270.181 74.9393 270.783 74.5545 271.171C74.469 271.257 74.4263 271.343 74.4263 271.429C74.2552 271.73 74.0842 272.01 73.9132 272.268C73.7422 272.526 73.5711 272.741 73.4001 272.913L73.0153 273.752C72.9298 273.838 72.8443 274.011 72.7588 274.269L72.5664 274.656C72.5664 274.699 72.545 274.721 72.5022 274.721C72.5022 274.721 72.5022 274.742 72.5022 274.785C72.2884 275.301 72.0533 275.796 71.7967 276.27C71.5402 276.7 71.305 277.109 71.0913 277.496C71.0485 277.668 70.963 277.84 70.8347 278.012C70.7492 278.184 70.6851 278.313 70.6423 278.4V278.529C70.5996 278.615 70.5354 278.722 70.4499 278.851C70.4072 278.98 70.343 279.088 70.2575 279.174L69.3596 280.981V292.986C69.4452 293.331 69.4452 293.632 69.3596 293.89C69.3596 294.019 69.3169 294.17 69.2314 294.342L69.039 294.729C69.381 294.385 69.5307 294.234 69.4879 294.277C69.4879 294.32 69.381 294.449 69.1672 294.664C68.9962 294.837 68.8252 294.987 68.6542 295.116C68.6114 295.116 68.5473 295.159 68.4618 295.245C68.3763 295.331 68.3335 295.374 68.3335 295.374L67.9487 295.955C67.9059 296.17 67.7563 296.407 67.4997 296.665L67.3073 296.859C67.3073 296.859 67.286 296.859 67.2432 296.859C67.2432 296.859 67.2432 296.88 67.2432 296.923C67.2005 296.923 67.1791 296.923 67.1791 296.923C67.1791 296.966 67.1577 296.988 67.1149 296.988C67.0722 297.16 67.0294 297.332 66.9867 297.504C66.9867 297.719 66.9439 297.913 66.8584 298.085C66.8157 298.128 66.7515 298.257 66.666 298.472C66.6232 298.688 66.5164 298.709 66.3453 298.537C66.2171 298.408 66.1102 298.193 66.0247 297.892C65.9819 297.633 65.9178 297.44 65.8323 297.311C65.7467 297.182 65.6185 297.031 65.4475 296.859C65.2764 296.773 65.1268 296.622 64.9985 296.407C64.8702 296.235 64.7634 296.127 64.6778 296.084C64.6778 296.3 64.6351 296.45 64.5496 296.536C64.5068 296.579 64.4641 296.558 64.4213 296.472C64.3785 296.386 64.3358 296.321 64.293 296.278L64.0365 295.891C63.9937 295.977 63.9296 296.063 63.8441 296.149C63.8013 296.235 63.7586 296.321 63.7158 296.407C63.6731 296.536 63.6089 296.665 63.5234 296.794C63.4379 296.966 63.331 297.139 63.2028 297.311C63.1172 297.526 62.989 297.741 62.8179 297.956C62.7324 298.085 62.6255 298.171 62.4973 298.214C62.4118 298.3 62.3263 298.386 62.2407 298.472C62.198 298.688 62.1552 298.903 62.1125 299.118C62.0697 299.376 62.027 299.613 61.9842 299.828C61.9414 300 61.8987 300.172 61.8559 300.344C61.8559 300.559 61.8132 300.775 61.7277 300.99C61.6849 301.162 61.6422 301.42 61.5994 301.764C61.5566 302.108 61.4925 302.194 61.407 302.022C60.9367 301.549 60.7229 301.334 60.7657 301.377C60.8084 301.42 60.9367 301.592 61.1505 301.893C61.3642 302.238 61.4925 302.56 61.5353 302.861C61.578 303.206 61.3642 303.399 60.8939 303.442C60.4664 303.442 60.2526 303.206 60.2526 302.732C60.2953 302.259 60.3808 301.7 60.5091 301.054C60.6801 300.409 60.7229 299.871 60.6374 299.441C60.6374 299.398 60.616 299.376 60.5732 299.376C60.5305 299.419 60.4877 299.419 60.445 299.376C60.3167 299.376 60.2312 299.355 60.1884 299.312C59.8464 299.225 59.6112 299.139 59.483 299.053C59.3547 298.967 59.2051 298.838 59.034 298.666C58.9913 298.623 58.9485 298.537 58.9058 298.408C58.863 298.322 58.8202 298.322 58.7775 298.408C58.7347 298.752 58.7347 299.247 58.7775 299.892C58.8202 300.538 58.8416 301.054 58.8416 301.441C58.8844 301.872 58.7989 301.936 58.5851 301.635C58.243 301.076 58.1361 300.43 58.2644 299.699C58.3927 299.01 58.4141 298.322 58.3285 297.633C58.3285 297.547 58.3072 297.59 58.2644 297.762C58.2644 297.978 58.243 298.171 58.2003 298.343C58.2003 298.559 58.1789 298.623 58.1361 298.537C58.0079 298.236 57.9437 297.913 57.9437 297.569C57.9865 297.268 57.9651 296.966 57.8796 296.665C57.7513 296.579 57.6231 296.472 57.4948 296.343C57.4093 296.256 57.3238 296.17 57.2383 296.084C57.2383 296.17 57.2169 296.256 57.1741 296.343C57.1741 296.429 57.1528 296.515 57.11 296.601H56.5969C56.1266 296.558 55.7632 296.364 55.5066 296.02C55.4639 296.192 55.4425 296.343 55.4425 296.472C55.4425 296.644 55.3998 296.816 55.3142 296.988C55.2287 297.074 55.1432 297.031 55.0577 296.859C54.9722 296.687 54.9294 296.536 54.9294 296.407L54.4805 295.374C54.395 295.331 54.3095 295.288 54.224 295.245C54.1384 295.159 54.0529 295.095 53.9674 295.052C53.5399 294.707 53.3261 294.256 53.3261 293.696V280.981L52.813 280.013L52.6206 279.626C52.5778 279.54 52.5351 279.454 52.4923 279.368C52.4496 279.282 52.4068 279.196 52.3641 279.11C52.3213 279.066 52.2358 278.916 52.1075 278.658C52.1075 278.572 52.0648 278.486 51.9793 278.4L51.0172 276.463C50.8462 276.248 50.6538 275.968 50.44 275.624C50.2263 275.237 49.9911 274.807 49.7346 274.333C49.649 274.161 49.5635 273.989 49.478 273.817C49.3925 273.645 49.307 273.473 49.2215 273.301C48.7512 272.397 48.2381 271.343 47.6823 270.138C47.1264 268.89 46.5492 267.621 45.9506 266.33L41.5254 257.552C41.3543 257.208 41.1833 256.864 41.0123 256.519C40.8413 256.132 40.6489 255.745 40.4351 255.358L39.6655 253.809C39.6227 253.679 39.5586 253.55 39.4731 253.421C39.3875 253.249 39.302 253.099 39.2165 252.969C39.2165 252.969 39.1738 252.862 39.0883 252.647C39.0027 252.432 38.9386 252.303 38.8958 252.26C38.8103 252.087 38.7676 251.894 38.7676 251.679C38.7676 251.291 38.9172 250.947 39.2165 250.646C39.3448 250.517 39.4517 250.431 39.5372 250.388C39.6655 250.345 39.7723 250.323 39.8579 250.323C39.9434 250.28 40.093 250.259 40.3068 250.259H50.44C50.7393 250.259 51.0386 250.259 51.3379 250.259C51.68 250.216 52.0006 250.216 52.2999 250.259C52.642 250.259 52.9626 250.323 53.2619 250.452C53.5612 250.538 53.8178 250.667 54.0316 250.84C54.2881 251.012 54.5446 251.27 54.8012 251.614C55.1432 252.173 55.4425 252.754 55.699 253.357C55.9556 253.916 56.2335 254.475 56.5328 255.035C56.7893 255.465 57.0245 255.938 57.2383 256.455C57.4948 256.971 57.7513 257.488 58.0079 258.004L60.5732 263.232C60.6588 263.318 60.7229 263.425 60.7657 263.555C60.8084 263.641 60.8512 263.748 60.8939 263.877C60.8939 263.963 60.9367 264.049 61.0222 264.135C61.0649 264.178 61.0863 264.243 61.0863 264.329C61.0863 264.372 61.1077 264.415 61.1505 264.458L61.3429 264.652L61.4711 264.587C61.4711 264.544 61.4925 264.501 61.5353 264.458C61.578 264.415 61.5994 264.372 61.5994 264.329C61.5994 264.243 61.6208 264.178 61.6635 264.135C61.8773 263.791 62.0483 263.447 62.1766 263.103L63.2028 261.037C63.5448 260.349 63.8869 259.66 64.2289 258.972C64.571 258.284 64.8916 257.595 65.1909 256.907L67.1791 253.034C67.3501 252.69 67.4997 252.367 67.628 252.066C67.799 251.722 68.0128 251.42 68.2694 251.162C68.4831 250.947 68.7611 250.753 69.1031 250.581C69.4452 250.366 69.8727 250.259 70.3858 250.259C70.5568 250.216 70.8347 250.216 71.2195 250.259C71.6043 250.259 71.9678 250.259 72.3098 250.259H81.481C81.6948 250.259 81.9086 250.259 82.1224 250.259C82.3789 250.216 82.6141 250.216 82.8278 250.259C82.9989 250.302 83.1699 250.388 83.3409 250.517C83.5975 250.689 83.7685 250.947 83.854 251.291C83.8967 251.377 83.9181 251.506 83.9181 251.679C83.9181 251.894 83.8754 252.087 83.7899 252.26C83.7471 252.432 83.6616 252.625 83.5333 252.84C83.4051 253.013 83.2982 253.206 83.2126 253.421C83.1699 253.464 83.0844 253.615 82.9561 253.873C82.7851 254.217 82.6354 254.562 82.5072 254.906C82.3789 255.25 82.2079 255.573 81.9941 255.874ZM120.268 277.625C120.311 278.313 120.311 279.002 120.268 279.69C120.268 280.379 120.247 281.046 120.204 281.691C120.119 283.025 119.926 284.273 119.627 285.435C119.328 286.553 118.9 287.586 118.344 288.533C118.173 288.834 118.002 289.135 117.831 289.436C117.66 289.738 117.468 290.039 117.254 290.34C117.04 290.598 116.805 290.835 116.549 291.05C116.549 291.093 116.527 291.136 116.484 291.179C116.313 291.437 116.1 291.652 115.843 291.825C115.8 291.868 115.758 291.911 115.715 291.954C115.672 291.997 115.608 292.061 115.522 292.147C115.48 292.19 115.437 292.233 115.394 292.276C115.351 292.319 115.309 292.362 115.266 292.405L114.881 293.244C114.881 293.417 114.881 293.589 114.881 293.761C114.881 293.89 114.86 294.041 114.817 294.213C114.774 294.514 114.774 294.923 114.817 295.439C114.86 295.912 114.774 296.063 114.56 295.891C114.432 295.762 114.347 295.611 114.304 295.439C114.304 295.224 114.304 295.03 114.304 294.858C114.304 294.944 114.261 295.03 114.176 295.116C114.133 295.245 114.047 295.374 113.919 295.503C113.834 295.676 113.705 295.783 113.534 295.826C113.235 295.955 112.978 295.848 112.765 295.503C112.594 295.202 112.465 294.966 112.38 294.794C112.38 294.75 112.358 294.707 112.316 294.664C112.016 295.224 111.888 295.848 111.931 296.536C111.974 297.268 111.952 297.978 111.867 298.666C111.867 298.838 111.845 299.032 111.803 299.247C111.76 299.505 111.717 299.742 111.674 299.957C111.632 300.215 111.525 300.452 111.354 300.667C111.354 300.796 111.268 300.861 111.097 300.861C110.926 300.775 110.841 300.667 110.841 300.538C110.755 299.806 110.712 299.053 110.712 298.279C110.712 297.504 110.67 296.751 110.584 296.02C110.584 296.02 110.563 295.998 110.52 295.955C110.52 295.955 110.499 295.955 110.456 295.955C110.328 295.998 110.199 296.063 110.071 296.149C109.943 296.235 109.836 296.321 109.75 296.407C109.451 296.708 109.195 297.074 108.981 297.504C108.852 297.762 108.724 298.021 108.596 298.279C108.51 298.537 108.404 298.774 108.275 298.989C108.232 299.032 108.168 299.118 108.083 299.247C108.04 299.419 108.019 299.484 108.019 299.441C107.933 298.967 107.89 298.494 107.89 298.021C107.89 297.547 107.848 297.096 107.762 296.665C107.848 296.665 107.719 296.644 107.377 296.601C107.078 296.601 106.95 296.622 106.993 296.665C106.907 297.354 106.864 298.042 106.864 298.731C106.864 299.419 106.822 300.108 106.736 300.796C106.736 300.839 106.651 300.925 106.479 301.054C106.351 301.183 106.266 301.269 106.223 301.312C106.18 301.355 106.116 301.377 106.031 301.377C105.988 301.42 105.966 301.42 105.966 301.377C105.881 300.645 105.838 299.892 105.838 299.118C105.838 298.386 105.774 297.655 105.646 296.923C105.517 296.966 105.411 297.031 105.325 297.117C105.24 297.203 105.197 297.246 105.197 297.246C105.154 297.289 105.111 297.354 105.069 297.44C105.069 297.569 105.026 297.676 104.94 297.762C104.898 297.762 104.791 297.676 104.62 297.504C104.577 297.418 104.534 297.332 104.491 297.246C104.491 297.16 104.449 297.096 104.363 297.053C104.363 297.009 104.342 296.988 104.299 296.988C104.256 296.945 104.235 296.923 104.235 296.923C104.235 296.966 104.213 296.966 104.171 296.923H103.786C103.786 297.096 103.786 297.268 103.786 297.44C103.786 297.612 103.743 297.806 103.658 298.021C103.658 298.021 103.487 297.827 103.145 297.44C102.931 297.225 102.824 297.117 102.824 297.117C102.824 297.16 102.76 297.16 102.631 297.117C102.46 297.117 102.375 297.096 102.375 297.053C102.332 297.655 102.289 298.236 102.247 298.795C102.247 299.398 102.204 300 102.118 300.602C102.118 300.688 102.076 300.645 101.99 300.473C101.947 300.301 101.905 300.172 101.862 300.086C101.819 299.957 101.776 299.828 101.734 299.699C101.691 299.613 101.648 299.505 101.605 299.376C101.477 298.817 101.37 298.257 101.285 297.698C101.242 297.182 101.178 296.644 101.092 296.084H100.707C94.8926 295.955 90.5101 294.6 87.5599 292.018L87.1751 291.631C84.6525 289.221 83.2629 285.908 83.0063 281.691C82.8781 279.669 82.8781 277.647 83.0063 275.624C83.3484 270.848 85.1442 267.255 88.3936 264.845C91.6859 262.436 96.1753 261.231 101.862 261.231H102.439C103.038 261.231 103.636 261.253 104.235 261.296C104.833 261.339 105.411 261.403 105.966 261.489C106.052 261.489 106.116 261.511 106.159 261.554C110.563 262.199 114.09 263.877 116.741 266.588C116.826 266.674 116.933 266.825 117.062 267.04C117.233 267.212 117.34 267.341 117.382 267.427C118.579 269.019 119.392 270.805 119.819 272.784C119.819 272.827 119.819 272.87 119.819 272.913C119.862 272.956 119.884 272.999 119.884 273.042C120.055 273.774 120.161 274.548 120.204 275.366C120.247 276.141 120.268 276.894 120.268 277.625ZM99.8737 285.306C100.002 285.392 100.152 285.478 100.323 285.564C100.793 285.693 101.156 285.757 101.413 285.757C101.669 285.757 101.926 285.736 102.183 285.693H102.567C102.738 285.607 102.888 285.542 103.016 285.499C103.187 285.413 103.337 285.327 103.465 285.241C103.807 284.897 104.021 284.488 104.107 284.015C104.235 283.541 104.32 283.09 104.363 282.659C104.406 282.401 104.427 282.122 104.427 281.82C104.47 281.519 104.491 281.218 104.491 280.917C104.534 280.314 104.555 279.604 104.555 278.787C104.555 277.969 104.534 277.238 104.491 276.592C104.491 276.377 104.491 276.162 104.491 275.947C104.491 275.732 104.47 275.538 104.427 275.366C104.427 275.194 104.406 275.043 104.363 274.914C104.363 274.742 104.363 274.57 104.363 274.398C104.235 273.279 103.936 272.526 103.465 272.139C103.294 271.967 103.166 271.881 103.08 271.881C103.038 271.838 102.973 271.816 102.888 271.816C102.845 271.816 102.802 271.816 102.76 271.816C102.717 271.773 102.674 271.773 102.631 271.816C102.589 271.859 102.546 271.967 102.503 272.139C102.503 272.268 102.46 272.375 102.375 272.462C102.332 272.548 102.204 272.612 101.99 272.655C101.819 272.655 101.691 272.634 101.605 272.591C101.349 272.548 101.114 272.419 100.9 272.203H100.515C100.472 272.16 100.429 272.117 100.387 272.074C100.344 271.988 100.28 271.924 100.194 271.881C100.066 271.881 99.9378 271.945 99.8095 272.074C99.5102 272.332 99.2965 272.698 99.1682 273.172C99.0399 273.602 98.933 274.118 98.8475 274.721C98.8048 274.85 98.7834 275.022 98.7834 275.237C98.7834 275.366 98.762 275.517 98.7192 275.689C98.7192 275.818 98.7192 275.968 98.7192 276.141C98.6765 276.485 98.6551 276.894 98.6551 277.367C98.6551 277.84 98.6551 278.313 98.6551 278.787C98.6551 279.088 98.6551 279.389 98.6551 279.69C98.6979 279.949 98.7192 280.228 98.7192 280.529C98.7192 280.831 98.7192 281.132 98.7192 281.433C98.7192 281.734 98.7406 281.992 98.7834 282.208C98.8689 282.982 98.9544 283.584 99.0399 284.015C99.1682 284.445 99.4461 284.875 99.8737 285.306ZM165.244 293.696C165.201 293.782 165.179 293.89 165.179 294.019C165.179 294.105 165.158 294.191 165.115 294.277C165.115 294.32 165.094 294.363 165.051 294.406C165.051 294.449 165.03 294.492 164.987 294.535C164.987 294.535 164.944 294.578 164.859 294.664C164.816 294.794 164.666 294.944 164.41 295.116C164.324 295.245 164.217 295.353 164.089 295.439C163.961 295.611 163.833 295.805 163.704 296.02C163.619 296.235 163.533 296.429 163.448 296.601C163.277 296.945 163.106 297.311 162.935 297.698C162.764 298.085 162.593 298.472 162.422 298.86L162.165 299.505C162.122 299.591 162.08 299.742 162.037 299.957C161.994 300.215 161.951 300.28 161.909 300.151C161.823 299.548 161.78 298.946 161.78 298.343C161.78 297.741 161.738 297.139 161.652 296.536C161.652 296.536 161.567 296.579 161.396 296.665C161.353 296.665 161.331 296.665 161.331 296.665C161.331 296.708 161.31 296.73 161.267 296.73C161.096 297.031 160.925 297.375 160.754 297.762C160.626 298.15 160.498 298.537 160.369 298.924C160.327 299.053 160.284 299.182 160.241 299.312C160.198 299.484 160.134 299.656 160.049 299.828C159.963 300 159.878 300.194 159.792 300.409C159.707 300.667 159.557 300.882 159.343 301.054C159.044 301.312 158.766 301.226 158.509 300.796C158.296 300.409 158.146 300.108 158.061 299.892C157.975 299.72 157.868 299.527 157.74 299.312C157.612 299.139 157.505 298.967 157.419 298.795C157.291 298.537 157.163 298.279 157.034 298.021C156.906 297.762 156.799 297.504 156.714 297.246L156.521 296.665C156.393 296.579 156.329 296.558 156.329 296.601C156.243 297.289 156.201 297.956 156.201 298.602C156.201 299.29 156.158 299.978 156.072 300.667C156.03 300.753 155.987 300.688 155.944 300.473C155.901 300.301 155.859 300.172 155.816 300.086C155.73 299.957 155.645 299.763 155.559 299.505C155.388 299.161 155.217 298.795 155.046 298.408C154.918 298.064 154.747 297.741 154.533 297.44C154.277 297.01 153.935 296.515 153.507 295.955C153.464 296.17 153.422 296.386 153.379 296.601C153.379 296.816 153.336 297.031 153.25 297.246C153.208 297.289 153.165 297.332 153.122 297.375C153.079 297.418 153.037 297.483 152.994 297.569C152.823 297.569 152.737 297.59 152.737 297.633L152.417 296.794C152.417 296.837 152.395 296.902 152.353 296.988C152.31 297.074 152.267 297.16 152.224 297.246C152.182 297.289 152.139 297.246 152.096 297.117C152.053 296.988 152.011 296.902 151.968 296.859C151.882 296.687 151.797 296.493 151.711 296.278C151.626 296.106 151.54 295.934 151.455 295.762C151.412 295.676 151.369 295.568 151.326 295.439C151.326 295.31 151.284 295.202 151.198 295.116C151.113 295.073 151.049 295.03 151.006 294.987C150.963 294.901 150.899 294.815 150.813 294.729C150.728 294.557 150.664 294.449 150.621 294.406C150.535 294.148 150.493 293.933 150.493 293.761C150.45 293.546 150.429 293.352 150.429 293.18C150.471 292.965 150.493 292.707 150.493 292.405V291.566C150.45 291.652 150.364 291.76 150.236 291.889C150.193 292.018 150.022 292.233 149.723 292.534L149.531 292.728C149.531 292.771 149.509 292.793 149.467 292.793C149.467 292.793 149.467 292.814 149.467 292.857L148.633 293.632C148.462 294.019 148.334 294.428 148.248 294.858C148.163 295.245 147.949 295.568 147.607 295.826C147.307 296.084 147.115 296.041 147.029 295.697C146.987 295.869 146.923 295.998 146.837 296.084C146.752 296.213 146.602 296.407 146.388 296.665L146.067 296.988C145.811 297.16 145.597 297.375 145.426 297.633L144.913 298.731C144.87 298.817 144.785 298.967 144.656 299.182C144.571 299.398 144.485 299.548 144.4 299.634C144.229 299.677 144.101 299.634 144.015 299.505C143.972 299.376 143.93 299.269 143.887 299.182C143.844 299.053 143.801 298.903 143.759 298.731C143.716 298.602 143.673 298.472 143.63 298.343C143.588 298.128 143.545 297.913 143.502 297.698C143.502 297.483 143.459 297.289 143.374 297.117C143.203 296.945 143.075 296.794 142.989 296.665H142.925C142.882 296.665 142.839 296.644 142.797 296.601C142.754 296.558 142.711 296.558 142.668 296.601C142.626 297.031 142.583 297.461 142.54 297.892C142.54 298.322 142.497 298.752 142.412 299.182C142.412 299.225 142.39 299.182 142.348 299.053C142.305 298.924 142.241 298.838 142.155 298.795C142.113 298.709 142.07 298.645 142.027 298.602C141.984 298.559 141.941 298.494 141.899 298.408C141.856 298.15 141.835 297.87 141.835 297.569C141.835 297.311 141.792 297.053 141.706 296.794C141.664 296.837 141.642 296.837 141.642 296.794C141.599 296.837 141.535 296.859 141.45 296.859C141.45 296.902 141.428 296.923 141.386 296.923C141.343 296.966 141.3 297.009 141.257 297.053C141.257 297.096 141.215 297.139 141.129 297.182C141.086 297.225 141.022 297.225 140.937 297.182C140.851 297.182 140.766 297.182 140.68 297.182C140.338 297.139 140.082 297.009 139.911 296.794C139.74 296.622 139.59 296.386 139.462 296.084H139.141C139.055 296.084 138.97 296.063 138.884 296.02C138.799 296.02 138.713 296.02 138.628 296.02C138.371 296.02 138.179 295.998 138.051 295.955C137.709 295.912 137.367 295.848 137.025 295.762C136.682 295.719 136.34 295.633 135.998 295.503C135.699 295.46 135.4 295.353 135.1 295.181C134.673 295.009 134.245 294.815 133.818 294.6C133.433 294.385 133.048 294.148 132.663 293.89C131.894 293.331 131.252 292.728 130.739 292.083C130.526 291.868 130.333 291.631 130.162 291.373C129.991 291.072 129.799 290.77 129.585 290.469C129.029 289.566 128.559 288.533 128.174 287.371C127.832 286.166 127.597 284.854 127.469 283.434C127.34 282.444 127.297 281.347 127.34 280.142C127.383 278.937 127.404 277.883 127.404 276.98V263.619C127.404 263.232 127.511 262.888 127.725 262.586L128.11 262.199C128.409 261.984 128.73 261.876 129.072 261.876C129.457 261.876 129.82 261.876 130.162 261.876H141.386C141.557 261.876 141.77 261.919 142.027 262.006C142.412 262.135 142.668 262.328 142.797 262.586C142.882 262.672 142.968 262.845 143.053 263.103C143.096 263.275 143.117 263.555 143.117 263.942V281.369C143.203 281.928 143.331 282.466 143.502 282.982C143.716 283.455 144.143 283.886 144.785 284.273C145.041 284.359 145.212 284.402 145.298 284.402C145.512 284.445 145.683 284.488 145.811 284.531C145.982 284.531 146.153 284.531 146.324 284.531C146.538 284.531 146.709 284.531 146.837 284.531C147.008 284.488 147.179 284.445 147.35 284.402C147.436 284.402 147.5 284.381 147.543 284.338C147.628 284.294 147.714 284.251 147.799 284.208C147.927 284.165 148.034 284.122 148.12 284.079L148.633 283.757C148.847 283.455 149.06 283.111 149.274 282.724C149.36 282.509 149.402 282.294 149.402 282.078C149.445 281.863 149.488 281.648 149.531 281.433V263.619C149.531 263.146 149.702 262.737 150.044 262.393C150.386 262.049 150.792 261.876 151.262 261.876H162.422C162.978 261.876 163.384 261.876 163.64 261.876C163.94 261.876 164.282 262.049 164.666 262.393C164.88 262.608 165.008 262.845 165.051 263.103C165.137 263.318 165.179 263.533 165.179 263.748C165.222 263.963 165.222 264.2 165.179 264.458C165.179 264.716 165.179 264.953 165.179 265.168V291.889C165.179 292.061 165.179 292.233 165.179 292.405C165.179 292.578 165.201 292.771 165.244 292.986V293.696ZM203.115 271.622C203.115 271.881 203.115 272.139 203.115 272.397C203.158 272.655 203.179 272.935 203.179 273.236C203.179 273.408 203.179 273.58 203.179 273.752C203.179 273.925 203.136 274.097 203.051 274.269C202.922 274.613 202.709 274.893 202.409 275.108C202.409 275.108 202.388 275.108 202.345 275.108C202.345 275.108 202.345 275.129 202.345 275.172C202.303 275.172 202.26 275.194 202.217 275.237C202.217 275.237 202.196 275.237 202.153 275.237C201.939 275.538 201.747 275.839 201.576 276.141C201.405 276.442 201.212 276.721 200.998 276.98C200.956 277.023 200.913 277.087 200.87 277.173C200.827 277.216 200.763 277.259 200.678 277.302C200.635 277.302 200.592 277.324 200.55 277.367C200.55 277.367 200.528 277.388 200.485 277.431C200.485 277.431 200.464 277.431 200.421 277.431C200.378 277.474 200.314 277.776 200.229 278.335C200.143 278.894 200.036 279.26 199.908 279.432C199.865 279.475 199.78 279.454 199.652 279.368C199.523 279.11 199.459 278.83 199.459 278.529C199.416 278.313 199.374 278.077 199.331 277.819C199.331 277.56 199.288 277.302 199.203 277.044L198.818 276.657C198.732 276.571 198.583 276.42 198.369 276.205C198.198 275.99 198.006 275.796 197.792 275.624L197.728 275.56C197.685 275.56 197.663 275.581 197.663 275.624C197.663 275.624 197.642 275.624 197.599 275.624C197.514 275.71 197.407 275.839 197.279 276.011C197.193 276.141 197.065 276.227 196.894 276.27C196.68 276.313 196.509 276.227 196.381 276.011C196.338 276.054 196.231 276.076 196.06 276.076C195.889 276.076 195.761 276.054 195.675 276.011L195.355 276.786C195.226 277.087 195.077 277.345 194.906 277.56C194.777 277.776 194.606 277.991 194.393 278.206C194.264 278.335 194.136 278.486 194.008 278.658C193.88 278.787 193.751 278.894 193.623 278.98C193.452 279.153 193.366 279.196 193.366 279.11C193.281 278.593 193.238 278.184 193.238 277.883C193.281 277.539 193.238 277.087 193.11 276.528C193.024 276.571 192.939 276.635 192.853 276.721C192.682 276.807 192.597 276.872 192.597 276.915C192.511 277.216 192.447 277.539 192.404 277.883C192.404 278.227 192.362 278.55 192.276 278.851C192.233 278.894 192.169 278.894 192.084 278.851C192.041 278.808 191.998 278.765 191.956 278.722C191.913 278.378 191.87 278.055 191.827 277.754C191.827 277.453 191.784 277.152 191.699 276.85C191.699 276.764 191.656 276.721 191.571 276.721C191.528 276.678 191.485 276.635 191.442 276.592C191.442 276.592 191.421 276.571 191.378 276.528C191.336 276.485 191.271 276.442 191.186 276.399C191.186 276.614 191.143 276.764 191.058 276.85C191.058 276.85 190.951 276.743 190.737 276.528H190.609C190.566 276.528 190.523 276.506 190.48 276.463C190.48 276.377 190.459 276.313 190.416 276.27C190.374 276.313 190.331 276.356 190.288 276.399C190.245 276.399 190.203 276.42 190.16 276.463C190.074 276.592 189.989 276.721 189.903 276.85C189.818 276.98 189.732 277.109 189.647 277.238C189.604 277.281 189.583 277.345 189.583 277.431C189.583 277.474 189.561 277.539 189.518 277.625C189.39 278.012 189.305 278.421 189.262 278.851C189.262 279.282 189.262 279.712 189.262 280.142V292.922C189.262 293.137 189.262 293.374 189.262 293.632C189.305 293.847 189.283 294.062 189.198 294.277C189.198 294.32 189.176 294.363 189.134 294.406C189.134 294.406 189.134 294.428 189.134 294.471C189.134 294.471 189.091 294.514 189.005 294.6C188.834 294.858 188.685 295.03 188.556 295.116C188.642 295.03 188.599 295.073 188.428 295.245C188.257 295.374 188.15 295.482 188.107 295.568C188.107 295.611 188.086 295.654 188.043 295.697C188.001 295.783 187.958 295.891 187.915 296.02C187.915 296.149 187.851 296.192 187.723 296.149C187.723 296.192 187.701 296.213 187.659 296.213C187.573 296.386 187.53 296.493 187.53 296.536C187.445 296.622 187.359 296.73 187.274 296.859C187.231 296.988 187.167 297.117 187.081 297.246C186.739 297.849 186.504 298.236 186.376 298.408C186.29 298.623 186.055 298.967 185.67 299.441C185.628 299.484 185.563 299.527 185.478 299.57C185.435 299.656 185.371 299.742 185.286 299.828C185.243 299.871 185.157 300.043 185.029 300.344C184.901 300.645 184.794 300.818 184.708 300.861C184.666 300.904 184.58 300.818 184.452 300.602C184.409 300.473 184.388 300.323 184.388 300.151C184.388 300.022 184.345 299.892 184.259 299.763L183.875 299.312C183.704 299.139 183.554 298.924 183.426 298.666C183.169 298.322 182.955 297.956 182.784 297.569C182.613 297.182 182.421 296.794 182.207 296.407C182.207 296.364 182.186 296.343 182.143 296.343C182.143 296.343 182.143 296.321 182.143 296.278C182.015 296.149 181.951 296.127 181.951 296.213C181.865 296.558 181.822 296.923 181.822 297.311C181.865 297.698 181.822 298.064 181.694 298.408C181.651 298.537 181.609 298.472 181.566 298.214C181.523 297.956 181.48 297.763 181.437 297.633L180.924 296.149V296.084C180.796 296.213 180.711 296.278 180.668 296.278C180.582 296.278 180.497 296.235 180.411 296.149C180.283 296.45 180.155 296.751 180.027 297.053C179.941 297.354 179.813 297.676 179.642 298.021C179.599 298.064 179.556 298.128 179.513 298.214C179.513 298.343 179.471 298.451 179.385 298.537C179.342 298.58 179.3 298.666 179.257 298.795C179.214 298.967 179.171 299.01 179.129 298.924C179 298.236 178.979 297.784 179.065 297.569C179.15 297.397 179.022 297.031 178.68 296.472C178.551 296.558 178.445 296.687 178.359 296.859C178.316 297.16 178.274 297.483 178.231 297.827C178.231 298.171 178.188 298.516 178.103 298.86C178.103 298.903 178.038 299.032 177.91 299.247C177.825 299.505 177.718 299.656 177.589 299.699C177.376 299.742 177.205 299.591 177.076 299.247C176.948 298.903 176.863 298.688 176.82 298.602C176.649 298.214 176.521 297.806 176.435 297.375C176.392 296.988 176.285 296.622 176.114 296.278C176.029 296.192 175.943 296.106 175.858 296.02C175.772 295.934 175.687 295.848 175.601 295.762C175.473 295.676 175.409 295.59 175.409 295.503C175.323 295.46 175.195 295.439 175.024 295.439C174.981 295.439 174.939 295.439 174.896 295.439C174.896 295.396 174.853 295.374 174.768 295.374C174.425 295.245 174.148 295.03 173.934 294.729C173.848 294.643 173.763 294.471 173.677 294.213C173.592 293.911 173.549 293.567 173.549 293.18C173.592 292.793 173.613 292.448 173.613 292.147V268.912C173.613 268.266 173.613 267.556 173.613 266.782C173.613 265.964 173.592 265.147 173.549 264.329C173.549 264.114 173.549 263.899 173.549 263.684C173.592 263.425 173.634 263.21 173.677 263.038C173.806 262.651 174.041 262.35 174.383 262.135C174.597 262.049 174.768 261.984 174.896 261.941C175.024 261.898 175.216 261.876 175.473 261.876C175.772 261.833 176.072 261.833 176.371 261.876C176.67 261.876 176.948 261.876 177.205 261.876H184.644C184.986 261.876 185.35 261.855 185.735 261.812C186.119 261.769 186.483 261.79 186.825 261.876C186.953 261.876 187.06 261.898 187.145 261.941C187.573 262.07 187.851 262.307 187.979 262.651C188.193 262.952 188.3 263.275 188.3 263.619V265.878L188.685 265.491C188.77 265.448 188.834 265.405 188.877 265.362C188.92 265.319 188.941 265.297 188.941 265.297C189.027 265.211 189.241 265.039 189.583 264.781C189.967 264.523 190.245 264.351 190.416 264.265C190.673 264.049 190.929 263.877 191.186 263.748C191.485 263.576 191.763 263.425 192.02 263.296C192.362 263.081 192.725 262.909 193.11 262.78C193.537 262.651 193.965 262.543 194.393 262.457C195.633 262.07 196.937 261.876 198.305 261.876H199.395C199.609 261.876 199.844 261.876 200.101 261.876C200.357 261.833 200.614 261.812 200.87 261.812C201.169 261.812 201.447 261.833 201.704 261.876C202.003 261.919 202.238 262.027 202.409 262.199C202.666 262.371 202.858 262.608 202.987 262.909C203.072 263.167 203.115 263.382 203.115 263.555V263.877C203.158 264.178 203.158 264.48 203.115 264.781C203.115 265.039 203.115 265.297 203.115 265.555V271.622ZM245.844 262.328C245.801 262.543 245.694 262.737 245.523 262.909C245.523 262.952 245.502 262.974 245.459 262.974C245.416 263.017 245.374 263.06 245.331 263.103C245.288 263.146 245.245 263.189 245.202 263.232C245.202 263.232 245.181 263.253 245.138 263.296C245.138 263.296 245.117 263.296 245.074 263.296C245.074 263.296 245.053 263.318 245.01 263.361C245.01 263.361 244.989 263.361 244.946 263.361C244.946 263.404 244.925 263.425 244.882 263.425C244.882 263.425 244.882 263.447 244.882 263.49C244.839 263.533 244.818 263.598 244.818 263.684C244.818 263.77 244.775 263.856 244.689 263.942L244.497 264.394C244.454 264.437 244.433 264.501 244.433 264.587C244.433 264.673 244.411 264.759 244.369 264.845C244.283 264.975 244.219 265.018 244.176 264.975C244.134 264.975 244.112 264.975 244.112 264.975C244.112 264.931 244.112 264.91 244.112 264.91C244.069 264.867 244.048 264.802 244.048 264.716C244.005 264.673 243.984 264.587 243.984 264.458C244.027 264.329 244.027 264.222 243.984 264.135C243.984 264.049 243.963 263.985 243.92 263.942C243.877 263.856 243.792 263.877 243.663 264.006C243.578 264.092 243.492 264.265 243.407 264.523C243.364 264.566 243.321 264.673 243.278 264.845C243.278 264.975 243.236 265.039 243.15 265.039C243.065 265.039 243.022 264.953 243.022 264.781C243.022 264.609 242.979 264.501 242.894 264.458C242.851 264.458 242.765 264.523 242.637 264.652L241.611 265.426C240.97 265.857 240.286 266.394 239.559 267.04C238.875 267.685 238.105 267.987 237.25 267.944C236.822 267.944 236.416 267.793 236.031 267.492C235.689 267.147 235.347 266.868 235.005 266.653C234.663 266.438 234.278 266.308 233.851 266.265C233.423 266.222 233.038 266.115 232.696 265.943C232.44 265.857 232.183 265.749 231.927 265.62C231.713 265.448 231.499 265.276 231.285 265.104C231.029 264.932 230.751 264.781 230.452 264.652C230.195 264.523 229.939 264.372 229.682 264.2C229.511 264.114 229.34 264.028 229.169 263.942C228.998 263.813 228.805 263.727 228.592 263.684C228.378 263.641 228.143 263.641 227.886 263.684C227.63 263.684 227.373 263.684 227.117 263.684C227.031 263.684 226.924 263.684 226.796 263.684C226.71 263.641 226.604 263.619 226.475 263.619C227.117 263.619 227.288 263.533 226.988 263.361C226.732 263.146 226.347 263.296 225.834 263.813V267.298L226.09 268.331H240.328C240.841 268.331 241.44 268.309 242.124 268.266C242.808 268.18 243.385 268.288 243.856 268.589C244.027 268.718 244.176 268.869 244.305 269.041C244.39 269.17 244.454 269.299 244.497 269.428C244.54 269.557 244.583 269.686 244.625 269.815C244.711 270.203 244.732 270.611 244.689 271.042C244.647 271.472 244.625 271.859 244.625 272.203V277.431C244.625 277.862 244.647 278.313 244.689 278.787C244.732 279.217 244.711 279.669 244.625 280.142C244.54 280.4 244.454 280.594 244.369 280.723C244.24 280.981 244.005 281.218 243.663 281.433C243.621 281.734 243.578 282.057 243.535 282.401C243.535 282.702 243.492 283.025 243.407 283.369C243.364 283.671 243.364 284.122 243.407 284.725C243.449 285.327 243.364 285.499 243.15 285.241C242.979 284.983 242.894 284.596 242.894 284.079C242.894 283.563 242.894 283.133 242.894 282.788C242.936 282.401 242.936 282.358 242.894 282.659C242.723 283.606 242.658 284.596 242.701 285.628C242.744 286.661 242.723 287.672 242.637 288.662C242.594 288.963 242.552 289.393 242.509 289.953C242.466 290.469 242.423 290.598 242.381 290.34C242.295 289.35 242.252 288.275 242.252 287.113C242.252 285.908 242.21 284.832 242.124 283.886C242.124 283.8 242.103 283.821 242.06 283.95C242.017 284.079 241.953 284.187 241.867 284.273C241.696 284.531 241.547 284.703 241.419 284.789C241.376 284.832 241.312 284.854 241.226 284.854C241.183 284.854 241.162 284.875 241.162 284.918C241.119 285.564 241.077 286.532 241.034 287.823C241.034 289.071 241.034 290.34 241.034 291.631C241.034 292.922 240.991 293.89 240.905 294.535C240.905 294.621 240.82 294.578 240.649 294.406C240.606 294.363 240.542 294.342 240.457 294.342C240.371 294.299 240.328 294.256 240.328 294.213C240.286 293.567 240.243 292.621 240.2 291.373C240.2 290.125 240.2 288.877 240.2 287.629C240.2 286.381 240.157 285.435 240.072 284.789C240.072 284.789 240.008 284.725 239.879 284.596C239.794 284.51 239.666 284.359 239.495 284.144C239.452 284.703 239.43 285.263 239.43 285.822C239.43 286.338 239.388 286.855 239.302 287.371C239.302 287.5 239.217 287.651 239.046 287.823C238.746 288.253 238.511 288.683 238.34 289.114L237.314 290.921C237.228 291.05 237.143 291.179 237.057 291.308C236.972 291.437 236.886 291.566 236.801 291.695C236.758 291.738 236.694 291.825 236.608 291.954C236.566 292.083 236.544 292.104 236.544 292.018C236.502 291.373 236.459 290.534 236.416 289.501C236.416 288.425 236.395 287.371 236.352 286.338C236.352 285.263 236.331 284.402 236.288 283.757C236.288 283.671 236.245 283.649 236.16 283.692C236.117 283.735 236.074 283.778 236.031 283.821C235.86 283.821 235.689 283.864 235.518 283.95C235.262 284.079 235.155 284.122 235.198 284.079C235.283 283.993 235.219 284.036 235.005 284.208C234.92 284.294 234.813 284.402 234.684 284.531C234.556 284.617 234.428 284.703 234.3 284.789C234.214 285.306 234.15 285.822 234.107 286.338C234.107 286.855 234.064 287.393 233.979 287.952C233.936 288.167 233.893 288.533 233.851 289.049C233.808 289.566 233.765 289.695 233.722 289.436C233.551 288.748 233.487 288.081 233.53 287.436C233.573 286.747 233.551 286.059 233.466 285.37C233.423 284.897 233.316 284.574 233.145 284.402V284.208L232.953 284.273C232.867 284.23 232.696 284.208 232.44 284.208C232.397 284.165 232.333 284.122 232.247 284.079C232.205 284.036 232.183 284.058 232.183 284.144C232.14 284.617 232.119 285.306 232.119 286.209C232.119 287.113 232.098 288.103 232.055 289.178C232.055 290.211 232.034 291.179 231.991 292.083C231.991 292.986 231.969 293.675 231.927 294.148C231.927 294.191 231.905 294.17 231.863 294.084C231.82 293.954 231.756 293.868 231.67 293.825C231.542 293.61 231.414 293.417 231.285 293.244C231.157 293.029 231.029 292.814 230.901 292.599C230.216 291.437 229.639 290.211 229.169 288.92C228.998 288.576 228.848 288.232 228.72 287.887C228.634 287.543 228.528 287.199 228.399 286.855C228.314 286.64 228.207 286.424 228.079 286.209C227.993 285.994 227.929 285.757 227.886 285.499C227.843 285.026 227.801 284.574 227.758 284.144C227.758 283.671 227.737 283.219 227.694 282.788L227.309 282.595C227.266 282.767 227.245 282.961 227.245 283.176C227.245 283.348 227.202 283.52 227.117 283.692C227.074 283.778 227.031 283.735 226.988 283.563C226.946 283.348 226.903 283.197 226.86 283.111C226.775 282.896 226.668 282.681 226.539 282.466C226.411 282.208 226.261 281.992 226.09 281.82C225.748 281.132 225.577 280.788 225.577 280.788C225.577 280.788 225.62 280.96 225.706 281.304C225.834 281.605 225.877 281.863 225.834 282.078V290.921C225.834 291.394 225.855 291.911 225.898 292.47C225.941 293.029 225.919 293.546 225.834 294.019C225.834 293.933 225.813 293.976 225.77 294.148C225.727 294.277 225.727 294.32 225.77 294.277C225.77 294.277 225.77 294.299 225.77 294.342C225.77 294.342 225.748 294.342 225.706 294.342C225.663 294.514 225.556 294.686 225.385 294.858C225.257 295.03 225.086 295.159 224.872 295.245C224.786 295.374 224.701 295.503 224.615 295.633C224.53 295.805 224.444 295.977 224.359 296.149C224.273 296.321 224.188 296.45 224.102 296.536C224.102 296.665 224.06 296.773 223.974 296.859C223.974 296.859 223.931 296.945 223.846 297.117C223.675 297.418 223.504 297.741 223.333 298.085C223.162 298.429 222.991 298.774 222.82 299.118C222.52 299.806 222.242 300.495 221.986 301.183C221.729 301.872 221.43 302.517 221.088 303.12L220.511 304.152C220.383 304.324 220.254 304.497 220.126 304.669C219.998 304.884 219.869 305.077 219.741 305.25C219.698 305.336 219.592 305.465 219.42 305.637C219.378 305.68 219.335 305.701 219.292 305.701C219.249 305.701 219.228 305.744 219.228 305.83C219.143 306.777 219.1 307.724 219.1 308.67C219.1 309.617 219.057 310.585 218.972 311.575C218.929 312.177 218.886 312.78 218.843 313.382C218.843 314.027 218.801 314.651 218.715 315.254C218.715 315.297 218.672 315.318 218.587 315.318C218.544 315.318 218.501 315.297 218.458 315.254C218.416 314.909 218.352 314.243 218.266 313.253C218.223 312.306 218.181 311.252 218.138 310.09C218.095 308.972 218.052 307.982 218.01 307.121C217.967 306.304 217.945 305.852 217.945 305.766C217.774 305.594 217.646 305.379 217.561 305.12C217.432 304.905 217.325 304.69 217.24 304.475C217.197 304.26 217.133 304.066 217.048 303.894L216.663 302.603C216.492 302.13 216.342 301.635 216.214 301.119C216.086 300.602 215.914 300.108 215.701 299.634C215.572 299.29 215.401 298.924 215.188 298.537L214.995 298.214C214.995 298.171 214.974 298.15 214.931 298.15C214.931 298.15 214.931 298.128 214.931 298.085C214.632 297.612 214.29 297.203 213.905 296.859L213.135 296.084C213.05 296.386 213.007 296.687 213.007 296.988C213.05 297.332 213.007 297.633 212.879 297.892C212.836 298.021 212.793 297.956 212.751 297.698C212.708 297.483 212.665 297.311 212.622 297.182L212.045 295.826C211.874 295.826 211.767 295.805 211.724 295.762C211.596 295.633 211.596 295.568 211.724 295.568C211.895 295.611 211.746 295.547 211.275 295.374C211.104 295.288 210.955 295.202 210.826 295.116C210.356 294.772 210.121 294.299 210.121 293.696V253.034C210.121 252.69 210.121 252.346 210.121 252.001C210.121 251.614 210.228 251.27 210.442 250.969C210.57 250.71 210.826 250.517 211.211 250.388C211.297 250.345 211.382 250.323 211.468 250.323C211.596 250.28 211.746 250.259 211.917 250.259H242.637C243.364 250.259 243.877 250.259 244.176 250.259C244.518 250.216 244.925 250.388 245.395 250.775C245.737 251.119 245.908 251.571 245.908 252.13V259.166C245.908 259.51 245.908 259.876 245.908 260.263C245.951 260.607 245.951 260.973 245.908 261.36V262.006C245.908 262.049 245.887 262.113 245.844 262.199C245.844 262.242 245.844 262.285 245.844 262.328ZM276.009 304.281C275.966 304.497 275.945 304.841 275.945 305.314C275.945 305.787 275.881 305.916 275.752 305.701C275.581 305.357 275.539 304.948 275.624 304.475C275.752 304.045 275.71 303.657 275.496 303.313C275.41 303.141 275.367 303.227 275.367 303.571C275.367 303.959 275.367 304.324 275.367 304.669C275.367 305.013 275.325 305.12 275.239 304.991C275.068 304.561 275.004 304.109 275.047 303.636C275.132 303.206 275.132 302.775 275.047 302.345C274.833 302.173 274.619 301.979 274.405 301.764C274.234 301.549 274.085 301.355 273.957 301.183C273.786 300.968 273.636 300.753 273.508 300.538C273.379 300.366 273.251 300.194 273.123 300.022C272.781 299.677 272.46 299.247 272.161 298.731L271.391 297.375C271.391 297.332 271.327 297.182 271.199 296.923C271.07 296.708 270.964 296.558 270.878 296.472C270.793 296.386 270.707 296.321 270.622 296.278C270.451 296.278 270.365 296.343 270.365 296.472C270.322 296.902 270.301 297.311 270.301 297.698C270.301 298.128 270.258 298.559 270.173 298.989C270.173 299.075 270.151 299.01 270.108 298.795C270.066 298.58 270.044 298.408 270.044 298.279C270.002 297.935 269.959 297.569 269.916 297.182C269.916 296.794 269.895 296.429 269.852 296.084H269.467C266.902 295.998 264.572 295.633 262.476 294.987C260.381 294.342 258.586 293.352 257.089 292.018L256.704 291.695L256.255 291.244C255.144 290.039 254.225 288.619 253.498 286.984C252.814 285.349 252.365 283.412 252.151 281.175C252.108 281.175 252.087 281.132 252.087 281.046C252.044 280.96 252.023 280.745 252.023 280.4C252.023 280.357 252.023 280.314 252.023 280.271C252.065 280.228 252.087 280.185 252.087 280.142C252.044 279.927 252.023 279.712 252.023 279.497C252.023 279.239 252.023 278.98 252.023 278.722V278.27C252.065 275.689 252.472 273.387 253.241 271.364C254.011 269.342 255.08 267.621 256.448 266.201C256.533 266.158 256.576 266.115 256.576 266.072C256.619 266.029 256.662 265.986 256.704 265.943C256.747 265.9 256.833 265.835 256.961 265.749C257.089 265.62 257.153 265.555 257.153 265.555C257.282 265.426 257.389 265.34 257.474 265.297C260.638 262.586 264.914 261.231 270.301 261.231H271.648C271.819 261.231 271.926 261.253 271.968 261.296C272.353 261.296 272.631 261.317 272.802 261.36C273.401 261.317 273.85 261.36 274.149 261.489C274.363 261.532 274.577 261.575 274.79 261.618C275.004 261.618 275.218 261.661 275.432 261.747C277.655 262.178 279.579 262.931 281.204 264.006C282.828 265.039 284.175 266.287 285.244 267.75C285.458 267.922 285.629 268.137 285.757 268.395C285.886 268.653 286.014 268.89 286.142 269.105L286.655 270.009C286.698 270.138 286.741 270.267 286.783 270.396C286.869 270.482 286.933 270.59 286.976 270.719C287.061 270.848 287.125 270.977 287.168 271.106C287.211 271.235 287.254 271.364 287.296 271.493C287.51 272.096 287.703 272.72 287.874 273.365C288.087 274.011 288.237 274.656 288.323 275.301C288.323 275.474 288.344 275.603 288.387 275.689C288.472 276.033 288.515 276.377 288.515 276.721C288.515 277.066 288.536 277.41 288.579 277.754V280.723C288.579 281.325 288.323 281.82 287.81 282.208C287.681 282.294 287.532 282.423 287.361 282.595C287.275 282.81 287.19 282.918 287.104 282.918C287.104 282.918 287.019 282.831 286.848 282.659C286.762 282.659 286.634 282.681 286.463 282.724C286.292 282.767 286.163 282.81 286.078 282.853C285.907 282.896 285.757 282.939 285.629 282.982C285.501 282.982 285.351 282.982 285.18 282.982C284.838 283.025 284.517 283.111 284.218 283.24C283.919 283.369 283.598 283.477 283.256 283.563C282.999 283.606 282.722 283.628 282.422 283.628C282.123 283.628 281.824 283.628 281.524 283.628C281.14 283.671 280.776 283.757 280.434 283.886C280.135 284.015 279.814 284.058 279.472 284.015C279.216 283.972 278.959 283.929 278.702 283.886C278.446 283.8 278.168 283.735 277.869 283.692C277.698 283.735 277.527 283.778 277.356 283.821C277.227 283.864 277.078 283.907 276.907 283.95C276.778 283.993 276.65 284.015 276.522 284.015C276.394 284.015 276.265 284.058 276.137 284.144C276.009 284.23 275.816 284.402 275.56 284.66H284.346C284.517 284.66 284.688 284.66 284.859 284.66C285.073 284.617 285.287 284.596 285.501 284.596H285.821C286.078 284.596 286.377 284.639 286.719 284.725C286.805 284.725 286.869 284.746 286.912 284.789C286.954 284.789 286.997 284.789 287.04 284.789C287.339 284.918 287.553 285.155 287.681 285.499C287.767 285.757 287.788 285.973 287.745 286.145C287.745 286.446 287.681 286.79 287.553 287.177L287.361 287.694C287.104 288.382 286.762 288.963 286.334 289.436C286.163 289.652 285.992 289.867 285.821 290.082C285.65 290.297 285.458 290.512 285.244 290.727C285.073 290.899 284.902 291.072 284.731 291.244C284.56 291.416 284.368 291.588 284.154 291.76L283.769 292.147C283.555 292.362 283.363 292.621 283.192 292.922C283.064 293.18 282.914 293.438 282.743 293.696C282.615 293.825 282.529 293.933 282.486 294.019C282.572 293.933 282.572 293.976 282.486 294.148C282.401 294.32 282.315 294.363 282.23 294.277C282.144 294.492 282.037 294.686 281.909 294.858C281.824 295.03 281.695 295.288 281.524 295.633C281.439 295.848 281.332 296.041 281.204 296.213C281.118 296.429 281.033 296.644 280.947 296.859C280.691 297.332 280.455 297.719 280.242 298.021C280.199 298.15 280.135 298.257 280.049 298.343C280.007 298.472 279.942 298.58 279.857 298.666L279.6 299.053C279.558 299.096 279.515 299.161 279.472 299.247C279.429 299.333 279.365 299.419 279.28 299.505C279.023 299.806 278.767 300.086 278.51 300.344C278.254 300.645 277.997 300.947 277.74 301.248L277.292 301.7C277.206 301.829 277.099 301.958 276.971 302.087C276.885 302.216 276.778 302.324 276.65 302.41C276.479 302.582 276.351 302.668 276.265 302.668C276.223 302.926 276.18 303.184 276.137 303.442C276.137 303.744 276.094 304.023 276.009 304.281ZM267.992 274.398H268.313C268.869 274.398 269.424 274.398 269.98 274.398C270.536 274.355 271.092 274.355 271.648 274.398L272.866 274.333V273.559C272.824 273.516 272.802 273.473 272.802 273.43C272.802 273.258 272.781 273.064 272.738 272.849C272.738 272.634 272.717 272.44 272.674 272.268L272.289 271.364C272.246 271.321 272.225 271.3 272.225 271.3C272.225 271.257 272.204 271.214 272.161 271.171C271.947 270.869 271.712 270.676 271.455 270.59C271.455 270.547 271.391 270.525 271.263 270.525H271.199C270.899 270.525 270.6 270.547 270.301 270.59C270.002 270.59 269.702 270.611 269.403 270.654C269.317 270.697 269.189 270.74 269.018 270.783C268.89 270.783 268.762 270.826 268.633 270.913C268.591 270.956 268.569 270.999 268.569 271.042C268.569 271.042 268.548 271.063 268.505 271.106C268.42 271.192 268.355 271.3 268.313 271.429C268.27 271.558 268.206 271.666 268.12 271.752C267.864 272.44 267.736 272.935 267.736 273.236C267.778 273.537 267.864 273.925 267.992 274.398ZM269.724 286.661C269.809 286.704 270.066 286.726 270.493 286.726C270.75 286.64 270.985 286.51 271.199 286.338C271.455 286.166 271.669 285.994 271.84 285.822L272.417 285.241C272.759 284.983 273.016 284.832 273.187 284.789C273.358 284.746 273.55 284.703 273.764 284.66C273.465 284.574 273.166 284.488 272.866 284.402C272.61 284.316 272.332 284.23 272.033 284.144C271.562 283.972 271.092 283.778 270.622 283.563C270.194 283.348 269.745 283.154 269.275 282.982L267.992 282.595C267.907 282.509 267.821 282.466 267.736 282.466V282.788C267.736 282.831 267.736 283.025 267.736 283.369C267.778 283.671 267.8 283.864 267.8 283.95C267.842 284.424 267.949 284.897 268.12 285.37C268.334 285.8 268.612 286.145 268.954 286.403L269.467 286.597C269.51 286.64 269.595 286.661 269.724 286.661ZM318.639 304.281C318.597 304.497 318.575 304.841 318.575 305.314C318.575 305.787 318.511 305.916 318.383 305.701C318.212 305.357 318.169 304.948 318.255 304.475C318.383 304.045 318.34 303.657 318.126 303.313C318.041 303.141 317.998 303.227 317.998 303.571C317.998 303.959 317.998 304.324 317.998 304.669C317.998 305.013 317.955 305.12 317.87 304.991C317.699 304.561 317.635 304.109 317.677 303.636C317.763 303.206 317.763 302.775 317.677 302.345C317.464 302.173 317.25 301.979 317.036 301.764C316.865 301.549 316.715 301.355 316.587 301.183C316.416 300.968 316.266 300.753 316.138 300.538C316.01 300.366 315.882 300.194 315.753 300.022C315.411 299.677 315.091 299.247 314.791 298.731L314.022 297.375C314.022 297.332 313.958 297.182 313.829 296.923C313.701 296.708 313.594 296.558 313.509 296.472C313.423 296.386 313.338 296.321 313.252 296.278C313.081 296.278 312.996 296.343 312.996 296.472C312.953 296.902 312.931 297.311 312.931 297.698C312.931 298.128 312.889 298.559 312.803 298.989C312.803 299.075 312.782 299.01 312.739 298.795C312.696 298.58 312.675 298.408 312.675 298.279C312.632 297.935 312.589 297.569 312.547 297.182C312.547 296.794 312.525 296.429 312.483 296.084H312.098C309.532 295.998 307.202 295.633 305.107 294.987C303.012 294.342 301.216 293.352 299.72 292.018L299.335 291.695L298.886 291.244C297.774 290.039 296.855 288.619 296.128 286.984C295.444 285.349 294.995 283.412 294.781 281.175C294.739 281.175 294.717 281.132 294.717 281.046C294.675 280.96 294.653 280.745 294.653 280.4C294.653 280.357 294.653 280.314 294.653 280.271C294.696 280.228 294.717 280.185 294.717 280.142C294.675 279.927 294.653 279.712 294.653 279.497C294.653 279.239 294.653 278.98 294.653 278.722V278.27C294.696 275.689 295.102 273.387 295.872 271.364C296.641 269.342 297.71 267.621 299.078 266.201C299.164 266.158 299.207 266.115 299.207 266.072C299.249 266.029 299.292 265.986 299.335 265.943C299.378 265.9 299.463 265.835 299.592 265.749C299.72 265.62 299.784 265.555 299.784 265.555C299.912 265.426 300.019 265.34 300.105 265.297C303.269 262.586 307.544 261.231 312.931 261.231H314.278C314.449 261.231 314.556 261.253 314.599 261.296C314.984 261.296 315.262 261.317 315.433 261.36C316.031 261.317 316.48 261.36 316.78 261.489C316.993 261.532 317.207 261.575 317.421 261.618C317.635 261.618 317.848 261.661 318.062 261.747C320.286 262.178 322.21 262.931 323.834 264.006C325.459 265.039 326.806 266.287 327.875 267.75C328.089 267.922 328.26 268.137 328.388 268.395C328.516 268.653 328.644 268.89 328.773 269.105L329.286 270.009C329.328 270.138 329.371 270.267 329.414 270.396C329.499 270.482 329.564 270.59 329.606 270.719C329.692 270.848 329.756 270.977 329.799 271.106C329.842 271.235 329.884 271.364 329.927 271.493C330.141 272.096 330.333 272.72 330.504 273.365C330.718 274.011 330.868 274.656 330.953 275.301C330.953 275.474 330.975 275.603 331.017 275.689C331.103 276.033 331.146 276.377 331.146 276.721C331.146 277.066 331.167 277.41 331.21 277.754V280.723C331.21 281.325 330.953 281.82 330.44 282.208C330.312 282.294 330.162 282.423 329.991 282.595C329.906 282.81 329.82 282.918 329.735 282.918C329.735 282.918 329.649 282.831 329.478 282.659C329.393 282.659 329.264 282.681 329.093 282.724C328.922 282.767 328.794 282.81 328.708 282.853C328.537 282.896 328.388 282.939 328.26 282.982C328.131 282.982 327.982 282.982 327.811 282.982C327.469 283.025 327.148 283.111 326.849 283.24C326.549 283.369 326.229 283.477 325.887 283.563C325.63 283.606 325.352 283.628 325.053 283.628C324.754 283.628 324.454 283.628 324.155 283.628C323.77 283.671 323.407 283.757 323.065 283.886C322.765 284.015 322.445 284.058 322.103 284.015C321.846 283.972 321.59 283.929 321.333 283.886C321.077 283.8 320.799 283.735 320.499 283.692C320.328 283.735 320.157 283.778 319.986 283.821C319.858 283.864 319.708 283.907 319.537 283.95C319.409 283.993 319.281 284.015 319.152 284.015C319.024 284.015 318.896 284.058 318.768 284.144C318.639 284.23 318.447 284.402 318.19 284.66H326.977C327.148 284.66 327.319 284.66 327.49 284.66C327.704 284.617 327.918 284.596 328.131 284.596H328.452C328.708 284.596 329.008 284.639 329.35 284.725C329.435 284.725 329.499 284.746 329.542 284.789C329.585 284.789 329.628 284.789 329.671 284.789C329.97 284.918 330.184 285.155 330.312 285.499C330.397 285.757 330.419 285.973 330.376 286.145C330.376 286.446 330.312 286.79 330.184 287.177L329.991 287.694C329.735 288.382 329.393 288.963 328.965 289.436C328.794 289.652 328.623 289.867 328.452 290.082C328.281 290.297 328.089 290.512 327.875 290.727C327.704 290.899 327.533 291.072 327.362 291.244C327.191 291.416 326.998 291.588 326.784 291.76L326.4 292.147C326.186 292.362 325.993 292.621 325.822 292.922C325.694 293.18 325.545 293.438 325.374 293.696C325.245 293.825 325.16 293.933 325.117 294.019C325.202 293.933 325.202 293.976 325.117 294.148C325.031 294.32 324.946 294.363 324.86 294.277C324.775 294.492 324.668 294.686 324.54 294.858C324.454 295.03 324.326 295.288 324.155 295.633C324.069 295.848 323.963 296.041 323.834 296.213C323.749 296.429 323.663 296.644 323.578 296.859C323.321 297.332 323.086 297.719 322.872 298.021C322.83 298.15 322.765 298.257 322.68 298.343C322.637 298.472 322.573 298.58 322.487 298.666L322.231 299.053C322.188 299.096 322.145 299.161 322.103 299.247C322.06 299.333 321.996 299.419 321.91 299.505C321.654 299.806 321.397 300.086 321.141 300.344C320.884 300.645 320.628 300.947 320.371 301.248L319.922 301.7C319.837 301.829 319.73 301.958 319.601 302.087C319.516 302.216 319.409 302.324 319.281 302.41C319.11 302.582 318.981 302.668 318.896 302.668C318.853 302.926 318.81 303.184 318.768 303.442C318.768 303.744 318.725 304.023 318.639 304.281ZM310.623 274.398H310.943C311.499 274.398 312.055 274.398 312.611 274.398C313.167 274.355 313.722 274.355 314.278 274.398L315.497 274.333V273.559C315.454 273.516 315.433 273.473 315.433 273.43C315.433 273.258 315.411 273.064 315.369 272.849C315.369 272.634 315.347 272.44 315.304 272.268L314.92 271.364C314.877 271.321 314.855 271.3 314.855 271.3C314.855 271.257 314.834 271.214 314.791 271.171C314.578 270.869 314.342 270.676 314.086 270.59C314.086 270.547 314.022 270.525 313.893 270.525H313.829C313.53 270.525 313.231 270.547 312.931 270.59C312.632 270.59 312.333 270.611 312.034 270.654C311.948 270.697 311.82 270.74 311.649 270.783C311.521 270.783 311.392 270.826 311.264 270.913C311.221 270.956 311.2 270.999 311.2 271.042C311.2 271.042 311.178 271.063 311.136 271.106C311.05 271.192 310.986 271.3 310.943 271.429C310.901 271.558 310.836 271.666 310.751 271.752C310.494 272.44 310.366 272.935 310.366 273.236C310.409 273.537 310.494 273.925 310.623 274.398ZM312.354 286.661C312.44 286.704 312.696 286.726 313.124 286.726C313.38 286.64 313.616 286.51 313.829 286.338C314.086 286.166 314.3 285.994 314.471 285.822L315.048 285.241C315.39 284.983 315.646 284.832 315.818 284.789C315.989 284.746 316.181 284.703 316.395 284.66C316.095 284.574 315.796 284.488 315.497 284.402C315.24 284.316 314.962 284.23 314.663 284.144C314.193 283.972 313.722 283.778 313.252 283.563C312.825 283.348 312.376 283.154 311.905 282.982L310.623 282.595C310.537 282.509 310.452 282.466 310.366 282.466V282.788C310.366 282.831 310.366 283.025 310.366 283.369C310.409 283.671 310.43 283.864 310.43 283.95C310.473 284.424 310.58 284.897 310.751 285.37C310.965 285.8 311.243 286.145 311.585 286.403L312.098 286.597C312.14 286.64 312.226 286.661 312.354 286.661ZM368.005 294.019V294.148C367.962 294.191 367.94 294.234 367.94 294.277C367.94 294.32 367.919 294.342 367.876 294.342C367.876 294.342 367.876 294.363 367.876 294.406C367.876 294.449 367.834 294.514 367.748 294.6C367.663 294.729 367.556 294.858 367.427 294.987C367.342 295.073 367.214 295.159 367.043 295.245C366.872 295.503 366.743 295.762 366.658 296.02C366.615 296.278 366.487 296.515 366.273 296.73C365.974 296.988 365.696 297.053 365.439 296.923C365.183 296.837 364.969 296.644 364.798 296.343C364.627 296.343 364.541 296.364 364.541 296.407C364.499 296.665 364.52 297.01 364.606 297.44C364.691 297.913 364.734 298.3 364.734 298.602C364.734 298.946 364.584 299.096 364.285 299.053C363.857 298.967 363.708 298.645 363.836 298.085C363.964 297.569 364.028 297.096 364.028 296.665C363.857 297.182 363.665 297.762 363.451 298.408C363.28 299.053 362.981 299.548 362.553 299.892C362.254 300.108 361.976 300.108 361.719 299.892C361.463 299.677 361.228 299.484 361.014 299.312C360.672 298.881 360.373 298.429 360.116 297.956C359.86 297.483 359.624 296.988 359.411 296.472C359.411 296.515 359.389 296.558 359.347 296.601C359.347 296.687 359.347 296.751 359.347 296.794C359.304 296.665 359.261 296.536 359.218 296.407C359.218 296.278 359.175 296.127 359.09 295.955L358.577 295.439H358.513C355.605 295.396 352.997 294.966 350.688 294.148C348.38 293.331 346.541 291.954 345.173 290.017C345.002 289.802 344.831 289.544 344.66 289.243C344.532 288.942 344.403 288.662 344.275 288.404C344.189 288.189 344.104 287.973 344.018 287.758C343.933 287.5 343.847 287.263 343.762 287.048C343.591 286.532 343.441 285.994 343.313 285.435C343.227 284.832 343.163 284.251 343.121 283.692C342.992 282.832 342.928 281.756 342.928 280.465C342.928 279.174 342.95 278.034 342.992 277.044V273.946L342.736 273.172L342.223 275.495C342.223 275.581 342.201 275.646 342.159 275.689C341.945 276.635 341.752 277.711 341.581 278.916C341.453 280.078 341.218 281.132 340.876 282.078C340.833 282.337 340.769 282.616 340.683 282.918C340.598 283.176 340.491 283.412 340.363 283.628C340.277 283.8 340.234 283.886 340.234 283.886C340.021 284.101 339.85 284.101 339.721 283.886C339.593 283.8 339.486 283.671 339.401 283.498C339.358 283.283 339.294 283.09 339.208 282.918L339.016 282.143L338.824 281.175C338.695 280.702 338.567 280.25 338.439 279.819C338.353 279.346 338.268 278.873 338.182 278.4C338.054 277.797 337.926 277.195 337.797 276.592C337.669 275.99 337.519 275.388 337.348 274.785L337.028 273.43C337.028 273.344 337.006 273.279 336.964 273.236C336.964 273.193 336.964 273.15 336.964 273.107C336.964 272.978 336.921 272.87 336.835 272.784C336.793 272.741 336.75 272.698 336.707 272.655C336.664 272.569 336.6 272.505 336.515 272.462C336.515 272.462 336.451 272.354 336.322 272.139C336.322 272.096 336.301 272.074 336.258 272.074C336.258 272.031 336.258 271.988 336.258 271.945C336.258 271.902 336.237 271.859 336.194 271.816C336.194 271.773 336.194 271.73 336.194 271.687C336.151 271.429 336.13 271.149 336.13 270.848C336.173 270.547 336.194 270.246 336.194 269.944V265.62C336.194 265.233 336.173 264.802 336.13 264.329C336.087 263.856 336.13 263.426 336.258 263.038C336.386 262.608 336.622 262.328 336.964 262.199C337.177 262.027 337.37 261.941 337.541 261.941C337.755 261.898 337.947 261.876 338.118 261.876H342.992V251.356C342.992 250.969 343.142 250.581 343.441 250.194C343.484 250.108 343.591 250.022 343.762 249.936C343.89 249.807 344.04 249.721 344.211 249.678C344.425 249.592 344.638 249.57 344.852 249.613C345.066 249.613 345.28 249.613 345.494 249.613H355.947C356.418 249.613 356.803 249.764 357.102 250.065C357.316 250.194 357.487 250.452 357.615 250.84C357.7 251.012 357.743 251.184 357.743 251.356C357.743 251.485 357.743 251.657 357.743 251.872C357.743 252.13 357.722 252.389 357.679 252.647C357.679 252.905 357.679 253.163 357.679 253.421V261.876H358.192C358.491 261.833 358.791 261.833 359.09 261.876C359.389 261.876 359.689 261.876 359.988 261.876H363.964C364.306 261.876 364.648 261.876 364.99 261.876C365.375 261.833 365.739 261.833 366.081 261.876C366.893 262.006 367.363 262.5 367.492 263.361C367.577 263.705 367.598 264.071 367.556 264.458C367.513 264.845 367.492 265.211 367.492 265.555C367.492 266.287 367.492 267.083 367.492 267.944C367.534 268.761 367.534 269.557 367.492 270.332C367.534 270.461 367.556 270.697 367.556 271.042C367.556 271.429 367.492 271.752 367.363 272.01C367.321 272.225 367.214 272.419 367.043 272.591C367 272.634 366.957 272.677 366.914 272.72C366.872 272.763 366.829 272.806 366.786 272.849C366.786 272.849 366.765 272.87 366.722 272.913C366.722 272.913 366.701 272.913 366.658 272.913C366.658 272.913 366.636 272.935 366.594 272.978C366.594 272.978 366.572 272.978 366.53 272.978C366.487 273.064 366.444 273.15 366.401 273.236C366.401 273.322 366.38 273.408 366.337 273.494C366.337 273.666 366.294 273.838 366.209 274.011C366.209 274.269 366.145 274.376 366.016 274.333C365.931 274.333 365.888 274.226 365.888 274.011C365.888 273.752 365.845 273.602 365.76 273.559C365.76 273.473 365.717 273.473 365.632 273.559C365.632 273.559 365.589 273.602 365.503 273.688C365.461 273.731 365.418 273.795 365.375 273.882C365.332 273.968 365.29 274.054 365.247 274.14C365.119 274.355 364.99 274.591 364.862 274.85C364.777 275.108 364.648 275.344 364.477 275.56C364.434 275.603 364.392 275.646 364.349 275.689C364.349 275.732 364.306 275.796 364.221 275.882C364.178 275.925 364.135 275.99 364.092 276.076C364.05 276.162 364.007 276.184 363.964 276.141C363.879 275.925 363.836 275.71 363.836 275.495C363.836 275.28 363.793 275.065 363.708 274.85C363.622 274.893 363.472 274.914 363.259 274.914C363.002 274.914 362.746 274.871 362.489 274.785C362.104 274.656 361.741 274.484 361.399 274.269C361.1 274.011 360.779 273.838 360.437 273.752C360.137 273.666 359.838 273.602 359.539 273.559C359.282 273.516 359.004 273.473 358.705 273.43C358.449 273.43 358.192 273.365 357.936 273.236C357.978 273.236 357.936 273.236 357.807 273.236C357.722 273.193 357.679 273.172 357.679 273.172V273.688C357.722 273.86 357.722 274.161 357.679 274.591C357.679 274.979 357.679 275.344 357.679 275.689V280.271C357.679 280.4 357.679 280.529 357.679 280.659C357.679 280.788 357.7 280.917 357.743 281.046C357.786 281.218 357.829 281.412 357.871 281.627C357.914 281.799 357.978 281.971 358.064 282.143C358.363 282.788 358.791 283.176 359.347 283.305C359.902 283.434 360.522 283.498 361.206 283.498H366.273C366.53 283.498 366.829 283.584 367.171 283.757C367.556 283.972 367.812 284.294 367.94 284.725C367.983 284.811 368.005 284.918 368.005 285.047C368.09 285.349 368.112 285.671 368.069 286.016C368.026 286.317 368.005 286.618 368.005 286.919V291.889C368.005 292.19 368.026 292.535 368.069 292.922C368.112 293.309 368.09 293.675 368.005 294.019Z" fill="white"/>
</g>
<defs>
<clipPath id="clip0_702_314">
<rect width="331.36" height="268.93" fill="white" transform="translate(38.4186 48.0232)"/>
</clipPath>
</defs>
</svg>
