<svg width="68" height="68" viewBox="0 0 68 68" fill="none" xmlns="http://www.w3.org/2000/svg">
<g clip-path="url(#clip0_705_733)">
<path d="M53 0H15C6.71573 0 0 6.71573 0 15V53C0 61.2843 6.71573 68 15 68H53C61.2843 68 68 61.2843 68 53V15C68 6.71573 61.2843 0 53 0Z" fill="#151515"/>
<mask id="mask0_705_733" style="mask-type:alpha" maskUnits="userSpaceOnUse" x="12" y="12" width="44" height="44">
<path d="M55.7212 12H12V56H55.7212V12Z" fill="#D9D9D9"/>
</mask>
<g mask="url(#mask0_705_733)">
<path d="M21.8372 29.4166C23.0213 29.4166 24.1447 29.6305 25.2074 30.0582C26.27 30.4861 27.2417 31.1124 28.1222 31.9374L45.5196 48.6666H46.6126C47.1288 48.6666 47.5614 48.4909 47.9105 48.1395C48.2598 47.7882 48.4343 47.3527 48.4343 46.8333C48.4343 46.5888 48.4115 46.3292 48.366 46.0542C48.3205 45.7792 48.161 45.5042 47.8877 45.2292L39.5535 36.8416L36.3199 27.0332L32.9498 27.8582C31.7959 28.1638 30.7485 27.95 29.8072 27.2166C28.8661 26.4832 28.3954 25.5208 28.3954 24.3291V20.4791L27.1202 19.8375L20.1066 29.2792C20.0763 29.3097 20.0611 29.3326 20.0611 29.3479C20.0611 29.3632 20.0458 29.3861 20.0155 29.4166H21.8372ZM21.8372 33.0832H19.7422C19.8334 33.2972 19.9472 33.4958 20.0839 33.6792C20.2205 33.8624 20.3799 34.0305 20.562 34.1832L35.3179 47.7042C35.652 48.0403 36.0315 48.2847 36.4564 48.4374C36.8816 48.5903 37.3219 48.6666 37.7772 48.6666H40.2365L25.6173 34.5958C25.1011 34.0764 24.5167 33.6945 23.8638 33.45C23.2111 33.2055 22.5356 33.0832 21.8372 33.0832ZM37.7772 52.3333C36.8664 52.3333 36.0011 52.1653 35.1813 51.8292C34.3616 51.493 33.6025 51.0195 32.9042 50.4083L18.1027 36.8874C16.706 35.6042 15.9242 34.0305 15.7573 32.1666C15.5902 30.3027 16.0685 28.6069 17.1919 27.0792L24.2055 17.6375C24.7217 16.9347 25.4123 16.4687 26.2776 16.2395C27.1429 16.0104 27.9703 16.1097 28.7597 16.5375L30.035 17.1791C30.6725 17.5152 31.1659 17.9736 31.5151 18.5541C31.8643 19.1347 32.0388 19.7764 32.0388 20.4791V24.3291L35.4091 23.4583C36.3199 23.2139 37.2004 23.3284 38.0505 23.802C38.9006 24.2756 39.4776 24.9555 39.7812 25.8416L42.7415 34.825L50.4838 42.6166C51.091 43.2277 51.5085 43.8847 51.7361 44.5874C51.9638 45.2903 52.0778 46.0388 52.0778 46.8333C52.0778 48.3611 51.5464 49.6597 50.4838 50.7292C49.4211 51.7985 48.1307 52.3333 46.6126 52.3333H37.7772Z" fill="white"/>
</g>
</g>
<defs>
<clipPath id="clip0_705_733">
<rect width="68" height="68" fill="white"/>
</clipPath>
</defs>
</svg>
